# xmcd CD database file
#
# Track frame offsets:
#	187
#	11992
#	26705
#	36832
#	49177
#	60602
#	72662
#	80752
#	91205
#	106012
#	120315
#	133385
#	146230
#	156695
#
# Disc length: 2277 seconds
#
# Revision: 0
# Processed by: cddbd v1.4PL0 Copyright (c) Steve Scherf et al.
# Submitted via: CDex 1.50Beta7
#
DISCID=d108e30e
DTITLE=J B Lenoir - Natural Man
DYEAR=1990
DGENRE=Blues
TTITLE0=Natural man
TTITLE1=Don't dog your woman
TTITLE2=Let me die with the one I love
TTITLE3=Carrie Lee
TTITLE4=Mama what about your daughter
TTITLE5=If I give my love to you
TTITLE6=Five years
TTITLE7=Don't touch my head
TTITLE8=I've been down so long
TTITLE9=What have I done
TTITLE10=Eisenhower blues
TTITLE11=Korea blues
TTITLE12=Everbody wants to know
TTITLE13=I'm in Korea
EXTD=YEAR: 1990
EXTT0=
EXTT1=
EXTT2=
EXTT3=
EXTT4=
EXTT5=
EXTT6=
EXTT7=
EXTT8=
EXTT9=
EXTT10=
EXTT11=
EXTT12=
EXTT13=
PLAYORDER=
